<svg width="24" height="24" viewBox="0 0 24 24" fill="none" xmlns="http://www.w3.org/2000/svg">
<path d="M2.75998 2.66671L10.3223 12.1179C10.6533 12.5318 10.8336 13.0462 10.8333 13.5762V21.3334L13.1667 19.5834V13.575C13.1667 13.0454 13.3469 12.5315 13.6777 12.1179L21.24 2.66671H2.75998ZM2.75998 0.333374H21.24C21.6796 0.333429 22.1102 0.457652 22.4822 0.691734C22.8543 0.925816 23.1527 1.26024 23.343 1.65648C23.5333 2.05271 23.6078 2.49465 23.558 2.93139C23.5081 3.36813 23.3359 3.7819 23.0612 4.12504L15.5 13.575V19.5834C15.5 19.9456 15.4156 20.3029 15.2536 20.6269C15.0917 20.9509 14.8564 21.2327 14.5667 21.45L12.2333 23.2C11.8867 23.46 11.4744 23.6184 11.0429 23.6573C10.6113 23.6962 10.1774 23.6142 9.78982 23.4204C9.40224 23.2266 9.07628 22.9287 8.84847 22.5601C8.62065 22.1915 8.49999 21.7667 8.49999 21.3334V13.575L0.938818 4.12504C0.664084 3.7819 0.491867 3.36813 0.442003 2.93139C0.39214 2.49465 0.466658 2.05271 0.656974 1.65648C0.847291 1.26024 1.14566 0.925816 1.51773 0.691734C1.88979 0.457652 2.32041 0.333429 2.75998 0.333374Z" fill="#F5F3E9"/>
</svg>
